<svg id="Layer_1" data-name="Layer 1" xmlns="http://www.w3.org/2000/svg" viewBox="0 0 131.13 133"><defs><style>.cls-1{fill:#fff;}.cls-2{fill:#231f20;}.cls-3{fill:#ec2224;}</style></defs><title>logo</title><rect class="cls-1" x="2.31" y="2.16" width="126.6" height="78.16"/><rect class="cls-1" x="1.11" y="81.25" width="128.91" height="50.64"/><path class="cls-2" d="M131.56,133.19H.44V80.34H131.56ZM2.65,131h126.7V82.55H2.65Z" transform="translate(-0.44 -0.19)"/><path class="cls-2" d="M24,92.34h1.33l3.7,10.17,3.69-10.17H34.1l-4.39,12H28.4Z" transform="translate(-0.44 -0.19)"/><path class="cls-2" d="M39.28,92.34h1.28v12H39.28Z" transform="translate(-0.44 -0.19)"/><path class="cls-2" d="M46,92.34h1.43l7.08,10v-10h1.28v12H54.47L47.33,94.3v10.06H46Z" transform="translate(-0.44 -0.19)"/><path class="cls-2" d="M60.81,98.35A6.17,6.17,0,1,1,67,104.52,6.17,6.17,0,0,1,60.81,98.35Zm11,0a4.86,4.86,0,1,0-4.86,5A4.87,4.87,0,0,0,71.84,98.35Z" transform="translate(-0.44 -0.19)"/><path class="cls-2" d="M77.23,102.31l1.09-.82a3.54,3.54,0,0,0,3.16,1.86A2.33,2.33,0,0,0,84,101.08c0-1.48-1.43-1.94-2.93-2.45s-3.36-1.25-3.36-3.34c0-1.75,1.58-3.11,3.69-3.11A4.38,4.38,0,0,1,85.15,94l-1,.76a3,3,0,0,0-2.72-1.43,2.16,2.16,0,0,0-2.37,2c0,1.38,1.38,1.83,2.86,2.34,1.66.58,3.42,1.27,3.42,3.46a3.62,3.62,0,0,1-3.85,3.44A4.87,4.87,0,0,1,77.23,102.31Z" transform="translate(-0.44 -0.19)"/><path class="cls-2" d="M92.79,95.62h1.52a2.68,2.68,0,0,1,2.84,2.73,2.71,2.71,0,0,1-2.82,2.73H92.79Zm.58.54v4.37h.92a2.16,2.16,0,0,0,2.26-2.18,2.13,2.13,0,0,0-2.29-2.19Z" transform="translate(-0.44 -0.19)"/><path class="cls-2" d="M99.41,95.62h3.31v.55H100v1.89h2.73v.55H100v1.9h2.73v.56H99.41Z" transform="translate(-0.44 -0.19)"/><path class="cls-2" d="M15.44,116.81A6.17,6.17,0,0,1,27,113.73l-1.1.64a4.81,4.81,0,0,0-4.25-2.52,5,5,0,0,0,0,9.91,4.69,4.69,0,0,0,4.38-2.7l1.14.59A6.1,6.1,0,0,1,21.61,123,6.17,6.17,0,0,1,15.44,116.81Z" transform="translate(-0.44 -0.19)"/><path class="cls-2" d="M31.35,116.81A6.17,6.17,0,1,1,37.53,123,6.17,6.17,0,0,1,31.35,116.81Zm11,0a4.86,4.86,0,1,0-4.86,5A4.86,4.86,0,0,0,42.38,116.81Z" transform="translate(-0.44 -0.19)"/><path class="cls-2" d="M51.84,110.8h1.38l4.56,12H56.45l-1.17-3H49.8l-1.15,3H47.3Zm-1.58,7.75h4.56l-2.29-6Z" transform="translate(-0.44 -0.19)"/><path class="cls-2" d="M70.11,117.39H63.78v5.43H62.49v-12h1.28v5.35h6.34V110.8h1.28v12H70.11Z" transform="translate(-0.44 -0.19)"/><path class="cls-2" d="M76.66,118.9v-8.1h1.28V119a2.81,2.81,0,0,0,5.61,0V110.8h1.28v8.1a4.09,4.09,0,0,1-8.18,0Z" transform="translate(-0.44 -0.19)"/><path class="cls-2" d="M90.26,110.8h1.29v12H90.26Z" transform="translate(-0.44 -0.19)"/><path class="cls-2" d="M97,110.8h1.28v10.78h5.36v1.23H97Z" transform="translate(-0.44 -0.19)"/><path class="cls-2" d="M112.84,110.8h1.38l4.56,12h-1.33l-1.17-3H110.8l-1.15,3h-1.35Zm-1.58,7.75h4.56l-2.29-6Z" transform="translate(-0.44 -0.19)"/><polygon class="cls-3" points="48.56 1.53 43.08 6.38 42.44 5.75 40.88 7.32 41.42 7.86 38.86 10.13 38.21 9.48 36.65 11.05 37.2 11.6 34.63 13.87 33.98 13.22 32.42 14.78 32.98 15.34 30.41 17.61 29.75 16.95 28.19 18.52 28.75 19.08 26.19 21.35 25.52 20.69 23.96 22.25 24.53 22.82 21.97 25.1 21.29 24.42 19.73 25.99 20.31 26.57 17.75 28.84 17.06 28.16 15.5 29.72 16.09 30.31 13.53 32.58 12.83 31.89 11.27 33.45 11.87 34.05 9.3 36.32 8.6 35.62 7.04 37.19 7.64 37.79 0.48 44.15 0.48 47.1 51.9 1.53 48.56 1.53"/><polygon class="cls-3" points="58.59 1.53 0.48 53.03 0.48 55.99 61.92 1.53 58.59 1.53"/><polygon class="cls-3" points="68.64 1.53 0.48 61.95 0.48 63.86 1 64.44 71.98 1.53 68.64 1.53"/><polygon class="cls-3" points="33.01 44.83 82.05 1.53 78.7 1.53 0.48 70.6 0.48 73.56 1.5 72.66 9.71 81.92 12.67 81.92 3.16 71.19 6.49 68.25 18.61 81.92 21.57 81.92 8.15 66.78 11.49 63.84 27.52 81.92 30.48 81.92 13.14 62.37 16.47 59.44 36.35 81.92 39.3 81.92 18.13 57.97 21.38 55.1 45.15 81.92 48.11 81.92 23.04 53.63 26.36 50.7 54.04 81.92 57 81.92 28.02 49.23 31.35 46.3 62.85 81.92 67.96 81.92 130.29 26.87 130.29 23.92 65.28 81.33 63.59 79.42 130.29 20.51 130.29 17.56 62.13 77.76 33.01 44.83"/><polygon class="cls-3" points="130.29 29.98 71.48 81.92 74.82 81.92 130.29 32.94 130.29 29.98"/><rect class="cls-3" x="3.04" y="31.66" width="2.21" height="1.66" transform="translate(-22.2 12.27) rotate(-45.01)"/><rect class="cls-3" x="5.39" y="34.01" width="2.21" height="1.66" transform="translate(-23.16 14.6) rotate(-44.99)"/><rect class="cls-3" x="2.58" y="23.23" width="2.21" height="1.66" transform="translate(-16.37 9.46) rotate(-44.99)"/><rect class="cls-3" x="4.93" y="25.58" width="2.21" height="1.66" transform="translate(-17.34 11.81) rotate(-45)"/><rect class="cls-3" x="9.62" y="30.27" width="2.21" height="1.66" transform="translate(-19.28 16.5) rotate(-44.99)"/><rect class="cls-3" x="7.27" y="27.93" width="2.21" height="1.66" transform="translate(-18.32 14.16) rotate(-45.01)"/><rect class="cls-3" x="9.16" y="21.85" width="2.21" height="1.66" transform="translate(-13.47 13.71) rotate(-45)"/><rect class="cls-3" x="6.81" y="19.5" width="2.21" height="1.66" transform="translate(-12.49 11.36) rotate(-44.99)"/><rect class="cls-3" x="2.12" y="14.81" width="2.21" height="1.66" transform="translate(-10.55 6.67) rotate(-45)"/><rect class="cls-3" x="4.46" y="17.15" width="2.21" height="1.66" transform="translate(-11.52 9.01) rotate(-45)"/><rect class="cls-3" x="11.5" y="24.19" width="2.21" height="1.66" transform="translate(-14.44 16.06) rotate(-45.01)"/><rect class="cls-3" x="13.85" y="26.54" width="2.21" height="1.66" transform="translate(-15.41 18.39) rotate(-44.99)"/><rect class="cls-3" x="11.04" y="15.76" width="2.21" height="1.66" transform="translate(-8.61 13.25) rotate(-44.99)"/><rect class="cls-3" x="4" y="8.72" width="2.21" height="1.66" transform="translate(-5.7 6.22) rotate(-45)"/><rect class="cls-3" x="13.39" y="18.11" width="2.21" height="1.66" transform="translate(-9.59 15.6) rotate(-45)"/><rect class="cls-3" x="18.08" y="22.81" width="2.21" height="1.66" transform="translate(-11.53 20.29) rotate(-44.99)"/><rect class="cls-3" x="6.35" y="11.07" width="2.21" height="1.66" transform="translate(-6.67 8.56) rotate(-45)"/><rect class="cls-3" x="1.65" y="6.38" width="2.21" height="1.66" transform="translate(-4.72 3.87) rotate(-45)"/><rect class="cls-3" x="15.73" y="20.46" width="2.21" height="1.66" transform="translate(-10.56 17.96) rotate(-45.01)"/><rect class="cls-3" x="8.69" y="13.42" width="2.21" height="1.66" transform="translate(-7.64 10.91) rotate(-45)"/><rect class="cls-3" x="10.58" y="7.34" width="2.21" height="1.66" transform="translate(-2.79 10.46) rotate(-45)"/><rect class="cls-3" x="8.23" y="4.99" width="2.21" height="1.66" transform="translate(-1.82 8.11) rotate(-45)"/><rect class="cls-3" x="12.92" y="9.68" width="2.21" height="1.66" transform="translate(-3.76 12.81) rotate(-45)"/><rect class="cls-3" x="22.31" y="19.07" width="2.21" height="1.66" transform="translate(-7.65 22.19) rotate(-44.99)"/><rect class="cls-3" x="15.27" y="12.03" width="2.21" height="1.66" transform="translate(-4.73 15.15) rotate(-44.99)"/><rect class="cls-3" x="19.96" y="16.72" width="2.21" height="1.66" transform="translate(-6.68 19.85) rotate(-45.01)"/><rect class="cls-3" x="5.88" y="2.64" width="2.21" height="1.66" transform="translate(-0.85 5.77) rotate(-45)"/><rect class="cls-3" x="17.62" y="14.38" width="2.21" height="1.66" transform="translate(-5.71 17.5) rotate(-45)"/><rect class="cls-3" x="21.85" y="10.64" width="2.21" height="1.66" transform="translate(-1.83 19.4) rotate(-45.01)"/><rect class="cls-3" x="24.19" y="12.99" width="2.21" height="1.66" transform="translate(-2.8 21.75) rotate(-45)"/><rect class="cls-3" x="19.5" y="8.3" width="2.21" height="1.66" transform="translate(-0.85 17.06) rotate(-45.01)"/><rect class="cls-3" x="26.54" y="15.34" width="2.21" height="1.66" transform="translate(-3.77 24.09) rotate(-45)"/><rect class="cls-3" x="14.81" y="3.6" width="2.21" height="1.66" transform="translate(1.09 12.36) rotate(-45)"/><rect class="cls-3" x="17.15" y="5.95" width="2.21" height="1.66" transform="translate(0.12 14.7) rotate(-45)"/><rect class="cls-3" x="28.42" y="9.26" width="2.21" height="1.66" transform="translate(1.08 23.65) rotate(-45.01)"/><rect class="cls-3" x="30.77" y="11.6" width="2.21" height="1.66" transform="translate(0.1 25.98) rotate(-44.99)"/><rect class="cls-3" x="26.08" y="6.91" width="2.21" height="1.66" transform="translate(2.05 21.3) rotate(-45)"/><rect class="cls-3" x="23.73" y="4.56" width="2.21" height="1.66" transform="translate(3.02 18.95) rotate(-44.99)"/><rect class="cls-3" x="30.31" y="3.18" width="2.21" height="1.66" transform="translate(5.93 23.19) rotate(-45)"/><rect class="cls-3" x="35" y="7.87" width="2.21" height="1.66" transform="translate(3.98 27.88) rotate(-44.99)"/><rect class="cls-3" x="32.65" y="5.52" width="2.21" height="1.66" transform="translate(4.96 25.55) rotate(-45.01)"/><rect class="cls-3" x="39.23" y="4.14" width="2.21" height="1.66" transform="translate(7.86 29.78) rotate(-44.99)"/><path class="cls-3" d="M38.28,45.26a4.85,4.85,0,0,0,4.54,5.12h.29a4.84,4.84,0,1,0-4.83-5.13Zm7.45.45a2.63,2.63,0,0,1-2.62,2.47h-.16a2.63,2.63,0,0,1,.16-5.25h.16a2.63,2.63,0,0,1,2.46,2.78Z" transform="translate(-0.44 -0.19)"/><path class="cls-3" d="M46.18,38.25a4.84,4.84,0,0,0,4.54,5.12H51a4.84,4.84,0,1,0-4.83-5.13Zm7.46.45A2.63,2.63,0,0,1,51,41.17h-.16A2.63,2.63,0,0,1,51,35.91h.16A2.63,2.63,0,0,1,53.63,38.7Z" transform="translate(-0.44 -0.19)"/><path class="cls-3" d="M54.08,31.25a4.84,4.84,0,0,0,4.54,5.12h.29a4.84,4.84,0,1,0-4.84-5.13Zm7.46.45a2.63,2.63,0,0,1-2.62,2.47h-.16a2.63,2.63,0,0,1,.16-5.25h.16a2.63,2.63,0,0,1,2.47,2.78Z" transform="translate(-0.44 -0.19)"/><path class="cls-3" d="M62,24.24a4.85,4.85,0,0,0,4.54,5.12h.29A4.84,4.84,0,1,0,62,24.24Zm7.46.45a2.63,2.63,0,0,1-2.62,2.47h-.16a2.63,2.63,0,0,1,.15-5.25H67a2.63,2.63,0,0,1,2.46,2.78Z" transform="translate(-0.44 -0.19)"/><path class="cls-3" d="M69.89,17.23a4.85,4.85,0,0,0,4.54,5.12h.29a4.84,4.84,0,1,0-4.83-5.13Zm7.45.45a2.63,2.63,0,0,1-2.62,2.47h-.16a2.63,2.63,0,0,1,.15-5.25h.16A2.63,2.63,0,0,1,77.34,17.68Z" transform="translate(-0.44 -0.19)"/><path class="cls-3" d="M49.56,58h.29a4.84,4.84,0,1,0-.29,0Zm.29-7.46H50a2.63,2.63,0,0,1-.16,5.25H49.7a2.63,2.63,0,0,1,.16-5.25Z" transform="translate(-0.44 -0.19)"/><path class="cls-3" d="M52.92,45.87A4.84,4.84,0,0,0,57.47,51h.29a4.84,4.84,0,1,0-4.83-5.13Zm7.46.45a2.63,2.63,0,0,1-2.62,2.47H57.6a2.63,2.63,0,0,1,.15-5.25h.16A2.63,2.63,0,0,1,60.38,46.32Z" transform="translate(-0.44 -0.19)"/><path class="cls-3" d="M60.83,38.87A4.84,4.84,0,0,0,65.37,44h.29a4.84,4.84,0,1,0-4.84-5.13Zm7.46.45a2.63,2.63,0,0,1-2.62,2.47H65.5a2.63,2.63,0,0,1,.16-5.25h.16a2.63,2.63,0,0,1,2.47,2.78Z" transform="translate(-0.44 -0.19)"/><path class="cls-3" d="M68.73,31.86A4.85,4.85,0,0,0,73.27,37h.29a4.84,4.84,0,1,0-4.83-5.13Zm7.46.45a2.63,2.63,0,0,1-2.62,2.47H73.4a2.63,2.63,0,0,1,.15-5.25h.16a2.63,2.63,0,0,1,2.46,2.78Z" transform="translate(-0.44 -0.19)"/><path class="cls-3" d="M81.18,30h.29a4.84,4.84,0,1,0-.29,0Zm.29-7.46h.16a2.63,2.63,0,0,1-.16,5.25h-.16a2.63,2.63,0,0,1,.15-5.25Z" transform="translate(-0.44 -0.19)"/><path class="cls-3" d="M56.31,65.62h.29a4.84,4.84,0,1,0-.29,0Zm.29-7.46h.16a2.63,2.63,0,0,1-.16,5.25h-.16a2.63,2.63,0,0,1,.16-5.25Z" transform="translate(-0.44 -0.19)"/><path class="cls-3" d="M64.21,58.61h.29a4.86,4.86,0,1,0-.29,0Zm.29-7.46h.16a2.63,2.63,0,0,1-.15,5.25h-.16a2.63,2.63,0,0,1,.15-5.25Z" transform="translate(-0.44 -0.19)"/><path class="cls-3" d="M72.41,51.62a4.86,4.86,0,1,0-.3,0Zm-2.63-5a2.63,2.63,0,0,1,2.62-2.47h.16a2.63,2.63,0,0,1-.15,5.25h-.16a2.63,2.63,0,0,1-2.47-2.78Z" transform="translate(-0.44 -0.19)"/><path class="cls-3" d="M80.31,44.61a4.85,4.85,0,1,0-.29,0Zm-2.63-5a2.63,2.63,0,0,1,2.62-2.47h.16a2.63,2.63,0,0,1-.16,5.25h-.16A2.63,2.63,0,0,1,77.68,39.61Z" transform="translate(-0.44 -0.19)"/><path class="cls-3" d="M88.21,37.61a4.84,4.84,0,1,0-.29,0Zm-2.62-5a2.63,2.63,0,0,1,2.62-2.47h.16a2.63,2.63,0,0,1-.16,5.25h-.16A2.63,2.63,0,0,1,85.59,32.61Z" transform="translate(-0.44 -0.19)"/><path class="cls-3" d="M63.06,73.24h.29a4.84,4.84,0,1,0-.29,0Zm.29-7.46h.16A2.63,2.63,0,0,1,63.35,71h-.16a2.63,2.63,0,0,1,.16-5.25Z" transform="translate(-0.44 -0.19)"/><path class="cls-3" d="M71.25,66.24a4.86,4.86,0,1,0-.29,0Zm-2.63-5a2.63,2.63,0,0,1,2.62-2.47h.16A2.63,2.63,0,0,1,71.25,64h-.16a2.63,2.63,0,0,1-2.46-2.78Z" transform="translate(-0.44 -0.19)"/><path class="cls-3" d="M79.16,59.24a4.86,4.86,0,1,0-.29,0Zm-2.63-5a2.63,2.63,0,0,1,2.62-2.47h.16A2.63,2.63,0,0,1,79.16,57H79a2.63,2.63,0,0,1-2.47-2.78Z" transform="translate(-0.44 -0.19)"/><path class="cls-3" d="M87.06,52.23a4.85,4.85,0,1,0-.29,0Zm-2.63-5A2.63,2.63,0,0,1,87,44.76h.16A2.63,2.63,0,0,1,87.06,50H86.9A2.63,2.63,0,0,1,84.43,47.23Z" transform="translate(-0.44 -0.19)"/><path class="cls-3" d="M95,45.23a4.84,4.84,0,1,0-.29,0Zm-2.62-5A2.63,2.63,0,0,1,95,37.76h.16A2.63,2.63,0,0,1,95,43H94.8A2.63,2.63,0,0,1,92.33,40.23Z" transform="translate(-0.44 -0.19)"/><path class="cls-3" d="M130.73,79.76a3.07,3.07,0,0,1-3.24-.13,5.21,5.21,0,0,0-6.36,0,3,3,0,0,1-3.43,0,5.2,5.2,0,0,0-6.36,0,3,3,0,0,1-3.43,0,5.21,5.21,0,0,0-6.36,0,3,3,0,0,1-3.43,0,5.2,5.2,0,0,0-6.36,0,3,3,0,0,1-3.43,0,5.21,5.21,0,0,0-6.36,0l1.47,1.66a3,3,0,0,1,3.43,0,4.18,4.18,0,0,0,1.49.82h3.38a4.19,4.19,0,0,0,1.49-.82,3,3,0,0,1,3.43,0,4.18,4.18,0,0,0,1.49.82h3.39a4.17,4.17,0,0,0,1.49-.82,3,3,0,0,1,3.43,0,4.18,4.18,0,0,0,1.49.82h3.38a4.17,4.17,0,0,0,1.49-.82,3,3,0,0,1,3.43,0,4.18,4.18,0,0,0,1.49.82h3.38a4.18,4.18,0,0,0,1.49-.82,3,3,0,0,1,3.43,0,4.18,4.18,0,0,0,1.49.82h3.22Z" transform="translate(-0.44 -0.19)"/><path class="cls-3" d="M130.73,73.8a5.1,5.1,0,0,0-4.08,1,3,3,0,0,1-3.43,0,5.21,5.21,0,0,0-6.36,0,3,3,0,0,1-3.43,0,5.21,5.21,0,0,0-6.36,0,3,3,0,0,1-3.43,0,5.2,5.2,0,0,0-6.36,0,3,3,0,0,1-3.43,0,5.21,5.21,0,0,0-6.36,0L89,76.46a3,3,0,0,1,3.43,0,5.21,5.21,0,0,0,6.36,0,3,3,0,0,1,3.43,0,5.2,5.2,0,0,0,6.36,0,3,3,0,0,1,3.43,0,5.21,5.21,0,0,0,6.36,0,3,3,0,0,1,3.43,0,5.21,5.21,0,0,0,6.36,0,3.05,3.05,0,0,1,2.62-.41Z" transform="translate(-0.44 -0.19)"/><path class="cls-3" d="M130.73,70.49a2.81,2.81,0,0,1-2-.51,5.21,5.21,0,0,0-6.36,0,3,3,0,0,1-3.43,0,5.21,5.21,0,0,0-6.36,0,3,3,0,0,1-3.43,0,5.2,5.2,0,0,0-6.36,0,3,3,0,0,1-3.43,0A5.21,5.21,0,0,0,93,70l1.47,1.66a3,3,0,0,1,3.43,0,5.21,5.21,0,0,0,6.36,0,3,3,0,0,1,3.43,0,5.2,5.2,0,0,0,6.36,0,3,3,0,0,1,3.43,0,5.21,5.21,0,0,0,6.36,0,3,3,0,0,1,3.43,0,4.92,4.92,0,0,0,3.46,1.06Z" transform="translate(-0.44 -0.19)"/><path class="cls-3" d="M130.73,64.09a4.71,4.71,0,0,0-2.84,1.06,3,3,0,0,1-3.43,0,5.21,5.21,0,0,0-6.36,0,3,3,0,0,1-3.43,0,5.2,5.2,0,0,0-6.36,0,3,3,0,0,1-3.43,0,5.2,5.2,0,0,0-6.36,0L100,66.81a3,3,0,0,1,3.43,0,5.21,5.21,0,0,0,6.36,0,3,3,0,0,1,3.43,0,5.2,5.2,0,0,0,6.36,0,3,3,0,0,1,3.43,0,5.21,5.21,0,0,0,6.36,0,2.45,2.45,0,0,1,1.38-.51Z" transform="translate(-0.44 -0.19)"/><path class="cls-3" d="M130.73,60.71a2,2,0,0,1-.76-.4,5.21,5.21,0,0,0-6.36,0,3,3,0,0,1-3.43,0,5.2,5.2,0,0,0-6.36,0,3,3,0,0,1-3.43,0,5.2,5.2,0,0,0-6.36,0L105.51,62a3,3,0,0,1,3.43,0,5.21,5.21,0,0,0,6.36,0,3,3,0,0,1,3.43,0,5.2,5.2,0,0,0,6.36,0,3,3,0,0,1,3.43,0,4.49,4.49,0,0,0,2.22,1Z" transform="translate(-0.44 -0.19)"/><path class="cls-3" d="M130.73,54.64a4.23,4.23,0,0,0-1.6.85,3,3,0,0,1-3.43,0,5.2,5.2,0,0,0-6.36,0,3,3,0,0,1-3.43,0,5.21,5.21,0,0,0-6.36,0L111,57.15a3,3,0,0,1,3.43,0,5.21,5.21,0,0,0,6.36,0,3,3,0,0,1,3.43,0,5.2,5.2,0,0,0,6.36,0l.14-.09Z" transform="translate(-0.44 -0.19)"/><path class="cls-3" d="M130.73,50.32a5.25,5.25,0,0,0-5.87.34,3,3,0,0,1-3.43,0,5.21,5.21,0,0,0-6.36,0l1.47,1.66a3,3,0,0,1,3.43,0,5.21,5.21,0,0,0,6.36,0,3,3,0,0,1,3.43,0,3.94,3.94,0,0,0,1,.61Z" transform="translate(-0.44 -0.19)"/><path class="cls-3" d="M130.73,45.58a3.69,3.69,0,0,0-.36.25,3,3,0,0,1-3.43,0,5.21,5.21,0,0,0-6.36,0l1.47,1.66a3,3,0,0,1,3.43,0,5.25,5.25,0,0,0,5.25.66Z" transform="translate(-0.44 -0.19)"/><path class="cls-3" d="M130.73,40.12a5.19,5.19,0,0,0-4.63.88l1.47,1.66a3.09,3.09,0,0,1,3.16-.18Z" transform="translate(-0.44 -0.19)"/><path class="cls-3" d="M110.31,33.63l-5.8-6.6-6.6,5.8,5.8,6.6Zm-6-3.48,2.88,3.28-3.28,2.88L101,33Z" transform="translate(-0.44 -0.19)"/><path class="cls-3" d="M118,26.25l-5.8-6.6-6.6,5.8,5.8,6.6Zm-6-3.48L114.9,26l-3.28,2.88-2.88-3.28Z" transform="translate(-0.44 -0.19)"/><path class="cls-3" d="M125.94,19.25l-5.8-6.6-6.6,5.8,5.8,6.6Zm-6-3.48,2.88,3.28-3.28,2.88-2.88-3.28Z" transform="translate(-0.44 -0.19)"/><polygon class="cls-3" points="130.29 12.44 127.23 15.13 124.35 11.85 127.63 8.97 130.29 12.01 130.29 8.65 127.83 5.85 121.22 11.65 127.02 18.25 130.29 15.38 130.29 12.44"/><path class="cls-3" d="M103.25,25.73l-5.8-6.6-6.6,5.8,5.8,6.6Zm-6-3.48,2.88,3.28-3.28,2.88L94,25.13Z" transform="translate(-0.44 -0.19)"/><path class="cls-3" d="M111,18.35l-5.8-6.6-6.6,5.8,5.8,6.6Zm-6-3.48,2.88,3.28L104.56,21l-2.88-3.28Z" transform="translate(-0.44 -0.19)"/><path class="cls-3" d="M119.09,11.74l-5.8-6.6-6.6,5.8,5.8,6.6Zm-6-3.48L116,11.54l-3.28,2.88-2.88-3.28Z" transform="translate(-0.44 -0.19)"/><polygon class="cls-3" points="120.97 1.53 123.45 4.35 120.17 7.23 117.29 3.95 120.05 1.53 116.7 1.53 114.17 3.75 119.96 10.35 126.57 4.55 123.91 1.53 120.97 1.53"/><polygon class="cls-3" points="126.28 1.53 127.88 3.35 129.97 1.53 126.28 1.53"/><path class="cls-3" d="M83.78,17l5.8,6.6,6.61-5.8-5.8-6.6Zm6,3.48-2.88-3.28,3.28-2.88,2.88,3.28Z" transform="translate(-0.44 -0.19)"/><path class="cls-3" d="M91.7,10l5.8,6.6,6.61-5.8-5.8-6.6Zm6,3.48-2.88-3.28L98.1,7.36,101,10.63Z" transform="translate(-0.44 -0.19)"/><polygon class="cls-3" points="106.78 1.53 108.47 3.44 105.19 6.32 102.31 3.05 104.04 1.53 100.69 1.53 99.19 2.84 104.98 9.45 111.59 3.65 109.73 1.53 106.78 1.53"/><path class="cls-3" d="M76.72,9.13l5.8,6.6,6.61-5.8-5.8-6.6Zm6,3.48L79.85,9.33l3.28-2.88L86,9.73Z" transform="translate(-0.44 -0.19)"/><polygon class="cls-3" points="92.6 1.53 93.49 2.54 90.21 5.42 87.33 2.14 88.03 1.53 84.68 1.53 84.21 1.94 90 8.54 96.61 2.74 95.54 1.53 92.6 1.53"/><path class="cls-2" d="M131.56,82.73H.44V.19H131.56ZM2.65,80.51h126.7V2.4H2.65Z" transform="translate(-0.44 -0.19)"/></svg>