<svg id="Layer_1" data-name="Layer 1" xmlns="http://www.w3.org/2000/svg" viewBox="0 0 327.21 43.48"><defs><style>.cls-1{fill:#fff;}.cls-2{fill:#e82224;}.cls-3{fill:#231f20;}</style></defs><title>logo</title><rect class="cls-1" x="0.46" y="0.47" width="68.02" height="42.3"/><polygon class="cls-2" points="25.99 0.44 0.31 23.2 0.31 24.76 27.74 0.44 25.99 0.44"/><polygon class="cls-2" points="31.27 0.44 0.31 27.88 0.31 29.44 33.02 0.44 31.27 0.44"/><polygon class="cls-2" points="36.56 0.44 0.31 32.58 0.31 33.7 0.53 33.94 38.32 0.44 36.56 0.44"/><polygon class="cls-2" points="41.86 0.44 0.31 37.14 0.31 38.69 43.62 0.44 41.86 0.44"/><polygon class="cls-2" points="68.48 9.37 32.38 41.26 33.15 42.13 68.48 10.93 68.48 9.37"/><polygon class="cls-2" points="35.8 43.13 68.48 14.28 68.48 12.72 34.04 43.13 35.8 43.13"/><polygon class="cls-2" points="39.42 43.13 68.48 17.47 68.48 15.92 37.66 43.13 39.42 43.13"/><polygon class="cls-2" points="6.66 43.13 1.29 37.08 0.42 37.85 5.1 43.13 6.66 43.13"/><polygon class="cls-2" points="11.35 43.13 3.92 34.76 3.05 35.53 9.79 43.13 11.35 43.13"/><polygon class="cls-2" points="16.04 43.13 6.53 32.41 5.66 33.18 14.48 43.13 16.04 43.13"/><polygon class="cls-2" points="20.69 43.13 9.18 30.12 8.3 30.89 19.13 43.13 20.69 43.13"/><polygon class="cls-2" points="25.32 43.13 11.69 27.76 10.82 28.53 23.77 43.13 25.32 43.13"/><polygon class="cls-2" points="30.01 43.13 14.39 25.52 13.52 26.29 28.45 43.13 30.01 43.13"/><polygon class="cls-2" points="34.65 43.13 17.01 23.2 16.14 23.97 33.09 43.13 34.65 43.13"/><polygon class="cls-2" points="0.82 15.06 0.31 15.57 0.31 16.19 0.62 16.5 1.44 15.68 0.82 15.06"/><rect class="cls-2" x="4.24" y="19.16" width="1.17" height="0.87" transform="translate(-12.84 9.04) rotate(-45)"/><rect class="cls-2" x="3" y="17.92" width="1.17" height="0.87" transform="translate(-12.33 7.81) rotate(-45)"/><rect class="cls-2" x="1.77" y="16.69" width="1.17" height="0.87" transform="translate(-11.81 6.57) rotate(-45)"/><rect class="cls-2" x="2.76" y="13.48" width="1.17" height="0.87" transform="translate(-9.26 6.33) rotate(-44.99)"/><rect class="cls-2" x="1.52" y="12.25" width="1.17" height="0.87" transform="translate(-8.75 5.1) rotate(-45)"/><polygon class="cls-2" points="0.58 10.62 0.31 10.89 0.31 12 0.37 12.06 1.2 11.24 0.58 10.62"/><rect class="cls-2" x="5.23" y="15.96" width="1.17" height="0.87" transform="translate(-10.28 8.8) rotate(-45)"/><rect class="cls-2" x="4" y="14.72" width="1.17" height="0.87" transform="translate(-9.77 7.57) rotate(-45)"/><rect class="cls-2" x="6.47" y="17.19" width="1.17" height="0.87" transform="translate(-10.79 10.04) rotate(-45)"/><rect class="cls-2" x="3.75" y="10.28" width="1.17" height="0.87" transform="translate(-6.7 6.1) rotate(-45)"/><rect class="cls-2" x="1.28" y="7.81" width="1.17" height="0.87" transform="translate(-5.68 3.62) rotate(-45)"/><rect class="cls-2" x="2.51" y="9.04" width="1.17" height="0.87" transform="translate(-6.19 4.86) rotate(-45)"/><polygon class="cls-2" points="0.31 7.44 0.95 6.8 0.33 6.18 0.31 6.21 0.31 7.44"/><rect class="cls-2" x="4.99" y="11.52" width="1.17" height="0.87" transform="translate(-7.21 7.33) rotate(-44.99)"/><rect class="cls-2" x="7.46" y="13.99" width="1.17" height="0.87" transform="translate(-8.24 9.8) rotate(-44.99)"/><rect class="cls-2" x="6.22" y="12.75" width="1.17" height="0.87" transform="translate(-7.73 8.57) rotate(-45)"/><rect class="cls-2" x="8.7" y="15.22" width="1.17" height="0.87" transform="translate(-8.75 11.04) rotate(-45)"/><rect class="cls-2" x="3.51" y="5.84" width="1.17" height="0.87" transform="translate(-3.64 4.62) rotate(-45)"/><rect class="cls-2" x="1.03" y="3.37" width="1.17" height="0.87" transform="translate(-2.61 2.15) rotate(-45)"/><rect class="cls-2" x="2.27" y="4.61" width="1.17" height="0.87" transform="translate(-3.12 3.39) rotate(-45)"/><rect class="cls-2" x="7.21" y="9.55" width="1.17" height="0.87" transform="translate(-5.17 8.33) rotate(-45)"/><rect class="cls-2" x="4.74" y="7.08" width="1.17" height="0.87" transform="translate(-4.15 5.86) rotate(-45)"/><rect class="cls-2" x="9.69" y="12.02" width="1.17" height="0.87" transform="translate(-6.2 10.8) rotate(-45)"/><rect class="cls-2" x="10.92" y="13.26" width="1.17" height="0.87" transform="translate(-6.71 12.04) rotate(-45.01)"/><rect class="cls-2" x="5.98" y="8.31" width="1.17" height="0.87" transform="translate(-4.66 7.09) rotate(-44.99)"/><rect class="cls-2" x="8.45" y="10.79" width="1.17" height="0.87" transform="translate(-5.68 9.57) rotate(-45)"/><rect class="cls-2" x="5.73" y="3.88" width="1.17" height="0.87" transform="translate(-1.59 5.62) rotate(-45)"/><rect class="cls-2" x="4.5" y="2.64" width="1.17" height="0.87" transform="translate(-1.08 4.39) rotate(-45)"/><polygon class="cls-2" points="1.65 0.44 1.49 0.6 2.11 1.22 2.89 0.44 1.65 0.44"/><rect class="cls-2" x="3.26" y="1.4" width="1.17" height="0.87" transform="translate(-0.57 3.15) rotate(-44.99)"/><rect class="cls-2" x="6.97" y="5.11" width="1.17" height="0.87" transform="translate(-2.11 6.86) rotate(-45)"/><rect class="cls-2" x="8.21" y="6.35" width="1.17" height="0.87" transform="translate(-2.62 8.09) rotate(-45)"/><rect class="cls-2" x="9.44" y="7.58" width="1.17" height="0.87" transform="translate(-3.13 9.33) rotate(-44.99)"/><rect class="cls-2" x="11.91" y="10.06" width="1.17" height="0.87" transform="translate(-4.15 11.8) rotate(-44.99)"/><rect class="cls-2" x="13.15" y="11.29" width="1.17" height="0.87" transform="translate(-4.66 13.04) rotate(-45.01)"/><rect class="cls-2" x="10.68" y="8.82" width="1.17" height="0.87" transform="translate(-3.64 10.57) rotate(-45)"/><rect class="cls-2" x="9.2" y="3.14" width="1.17" height="0.87" transform="translate(-0.06 7.86) rotate(-44.99)"/><rect class="cls-2" x="7.96" y="1.91" width="1.17" height="0.87" transform="translate(0.45 6.62) rotate(-45)"/><polygon class="cls-2" points="6.86 0.44 6.19 1.11 6.81 1.72 7.64 0.9 7.18 0.44 6.86 0.44"/><rect class="cls-2" x="10.43" y="4.38" width="1.17" height="0.87" transform="translate(-0.57 9.09) rotate(-45)"/><rect class="cls-2" x="14.14" y="8.09" width="1.17" height="0.87" transform="translate(-2.11 12.8) rotate(-44.99)"/><rect class="cls-2" x="15.38" y="9.32" width="1.17" height="0.87" transform="translate(-2.62 14.04) rotate(-45.01)"/><rect class="cls-2" x="11.67" y="5.62" width="1.17" height="0.87" transform="translate(-1.09 10.33) rotate(-44.99)"/><rect class="cls-2" x="12.91" y="6.85" width="1.17" height="0.87" transform="translate(-1.6 11.57) rotate(-45)"/><rect class="cls-2" x="12.66" y="2.41" width="1.17" height="0.87" transform="translate(1.47 10.09) rotate(-45)"/><rect class="cls-2" x="11.43" y="1.18" width="1.17" height="0.87" transform="translate(1.98 8.86) rotate(-45)"/><polygon class="cls-2" points="9.72 0.44 10.28 0.99 10.82 0.44 9.72 0.44"/><rect class="cls-2" x="16.37" y="6.12" width="1.17" height="0.87" transform="translate(-0.07 13.8) rotate(-44.99)"/><rect class="cls-2" x="17.61" y="7.36" width="1.17" height="0.87" transform="translate(-0.58 15.04) rotate(-45.01)"/><rect class="cls-2" x="13.9" y="3.65" width="1.17" height="0.87" transform="translate(0.96 11.33) rotate(-44.99)"/><rect class="cls-2" x="15.13" y="4.89" width="1.17" height="0.87" transform="translate(0.44 12.57) rotate(-45)"/><rect class="cls-2" x="17.36" y="2.92" width="1.17" height="0.87" transform="translate(2.49 13.56) rotate(-45)"/><polygon class="cls-2" points="14.79 0.44 14.36 0.88 14.97 1.5 15.8 0.68 15.57 0.44 14.79 0.44"/><rect class="cls-2" x="16.13" y="1.68" width="1.17" height="0.87" transform="translate(3 12.33) rotate(-45)"/><rect class="cls-2" x="19.83" y="5.39" width="1.17" height="0.87" transform="translate(1.47 16.04) rotate(-45.01)"/><rect class="cls-2" x="18.6" y="4.16" width="1.17" height="0.87" transform="translate(1.98 14.8) rotate(-45)"/><rect class="cls-2" x="19.59" y="0.95" width="1.17" height="0.87" transform="translate(4.53 14.56) rotate(-45)"/><rect class="cls-2" x="20.82" y="2.19" width="1.17" height="0.87" transform="translate(4.02 15.8) rotate(-44.99)"/><rect class="cls-2" x="22.06" y="3.43" width="1.17" height="0.87" transform="translate(3.51 17.04) rotate(-45.01)"/><path class="cls-2" d="M22.87,26.55h-.15a2.55,2.55,0,1,1,.15,0Zm0-3.93a1.38,1.38,0,0,0-.08,2.77h.08a1.38,1.38,0,0,0,.08-2.77Z" transform="translate(-0.39 -0.11)"/><path class="cls-2" d="M27,22.86h-.15a2.55,2.55,0,1,1,.15,0Zm0-3.93a1.38,1.38,0,1,0,.09,0Z" transform="translate(-0.39 -0.11)"/><path class="cls-2" d="M31.19,19.17H31a2.55,2.55,0,1,1,.16,0Zm0-3.93a1.38,1.38,0,1,0,.08,0Z" transform="translate(-0.39 -0.11)"/><path class="cls-2" d="M35.35,15.48H35.2a2.55,2.55,0,1,1,.15,0Zm0-3.93a1.39,1.39,0,1,0,.09,0Z" transform="translate(-0.39 -0.11)"/><path class="cls-2" d="M39.51,11.79h-.15a2.55,2.55,0,1,1,.15,0Zm0-3.93a1.38,1.38,0,0,0-.08,2.77h.08a1.38,1.38,0,0,0,.08-2.77Z" transform="translate(-0.39 -0.11)"/><path class="cls-2" d="M26.42,30.56h-.15a2.55,2.55,0,1,1,.15,0Zm0-3.93a1.38,1.38,0,0,0-.08,2.77h.08a1.38,1.38,0,0,0,1-2.3,1.37,1.37,0,0,0-1-.46Z" transform="translate(-0.39 -0.11)"/><path class="cls-2" d="M30.58,26.87h-.15a2.55,2.55,0,1,1,.15,0Zm0-3.93a1.38,1.38,0,1,0,.09,0Z" transform="translate(-0.39 -0.11)"/><path class="cls-2" d="M34.75,23.18h-.16a2.55,2.55,0,1,1,.16,0Zm0-3.93a1.39,1.39,0,1,0,.08,0Z" transform="translate(-0.39 -0.11)"/><path class="cls-2" d="M38.91,19.49h-.15a2.55,2.55,0,1,1,.15,0Zm0-3.93a1.4,1.4,0,1,0,.09,0Z" transform="translate(-0.39 -0.11)"/><path class="cls-2" d="M43.07,15.8h-.15a2.55,2.55,0,1,1,.15,0Zm0-3.93A1.38,1.38,0,0,0,43,14.64h.08a1.38,1.38,0,0,0,.08-2.77Z" transform="translate(-0.39 -0.11)"/><path class="cls-2" d="M30,34.58h-.15a2.55,2.55,0,1,1,.15,0Zm0-3.93a1.38,1.38,0,0,0-.08,2.77H30a1.38,1.38,0,0,0,.08-2.77Z" transform="translate(-0.39 -0.11)"/><path class="cls-2" d="M34.13,30.88H34a2.55,2.55,0,1,1,.15,0Zm0-3.93a1.39,1.39,0,1,0,.09,0Z" transform="translate(-0.39 -0.11)"/><path class="cls-2" d="M38.3,27.2h-.16a2.55,2.55,0,1,1,.16,0Zm0-3.93a1.38,1.38,0,1,0,.08,0Z" transform="translate(-0.39 -0.11)"/><path class="cls-2" d="M42.46,23.51H42.3a2.55,2.55,0,1,1,.15,0Zm0-3.93a1.39,1.39,0,1,0,.09,0Z" transform="translate(-0.39 -0.11)"/><path class="cls-2" d="M46.62,19.82h-.15a2.55,2.55,0,1,1,.15,0Zm0-3.93a1.38,1.38,0,0,0-.08,2.77h.08a1.38,1.38,0,0,0,.08-2.77Z" transform="translate(-0.39 -0.11)"/><path class="cls-2" d="M33.52,38.59h-.15a2.55,2.55,0,1,1,.15,0Zm0-3.93a1.38,1.38,0,0,0-.08,2.77h.08a1.38,1.38,0,0,0,.08-2.77Z" transform="translate(-0.39 -0.11)"/><path class="cls-2" d="M37.69,34.9h-.15a2.55,2.55,0,1,1,.15,0Zm0-3.93a1.38,1.38,0,1,0,.08,0Z" transform="translate(-0.39 -0.11)"/><path class="cls-2" d="M41.85,31.21H41.7a2.55,2.55,0,1,1,.15,0Zm0-3.93a1.38,1.38,0,1,0,.08,0Z" transform="translate(-0.39 -0.11)"/><path class="cls-2" d="M46,27.52h-.15a2.55,2.55,0,1,1,.15,0Zm0-3.93a1.4,1.4,0,1,0,.09,0Z" transform="translate(-0.39 -0.11)"/><path class="cls-2" d="M50.17,23.83H50a2.55,2.55,0,1,1,.15,0Zm0-3.93a1.38,1.38,0,0,0-.08,2.77h.08a1.38,1.38,0,0,0,.08-2.77Z" transform="translate(-0.39 -0.11)"/><path class="cls-2" d="M45.92,42.82a2.18,2.18,0,0,0,.74.42h1.86a2.18,2.18,0,0,0,.74-.42,1.6,1.6,0,0,1,1.8,0,2.19,2.19,0,0,0,.74.42h1.86a2.18,2.18,0,0,0,.74-.42,1.6,1.6,0,0,1,1.81,0,2.18,2.18,0,0,0,.74.42h1.86a2.18,2.18,0,0,0,.74-.42,1.6,1.6,0,0,1,1.81,0,2.18,2.18,0,0,0,.74.42H64a2.18,2.18,0,0,0,.74-.42,1.6,1.6,0,0,1,1.81,0,2.16,2.16,0,0,0,.75.42h1.59V42.09A1.63,1.63,0,0,1,67.31,42,2.74,2.74,0,0,0,64,42a1.6,1.6,0,0,1-1.81,0,2.74,2.74,0,0,0-3.35,0A1.6,1.6,0,0,1,57,42a2.74,2.74,0,0,0-3.35,0,1.59,1.59,0,0,1-1.8,0,2.74,2.74,0,0,0-3.35,0,1.6,1.6,0,0,1-1.81,0,2.74,2.74,0,0,0-3.35,0l.77.87A1.6,1.6,0,0,1,45.92,42.82Z" transform="translate(-0.39 -0.11)"/><path class="cls-2" d="M68.88,38.86a2.65,2.65,0,0,0-2,.54,1.6,1.6,0,0,1-1.81,0,2.74,2.74,0,0,0-3.35,0,1.6,1.6,0,0,1-1.81,0,2.74,2.74,0,0,0-3.35,0,1.59,1.59,0,0,1-1.8,0,2.74,2.74,0,0,0-3.35,0,1.6,1.6,0,0,1-1.81,0,2.74,2.74,0,0,0-3.35,0l.77.87a1.6,1.6,0,0,1,1.81,0,2.74,2.74,0,0,0,3.35,0,1.6,1.6,0,0,1,1.8,0,2.74,2.74,0,0,0,3.35,0,1.6,1.6,0,0,1,1.81,0,2.74,2.74,0,0,0,3.35,0,1.6,1.6,0,0,1,1.81,0,2.74,2.74,0,0,0,3.35,0A1.56,1.56,0,0,1,68.88,40Z" transform="translate(-0.39 -0.11)"/><path class="cls-2" d="M68.88,37.14a1.41,1.41,0,0,1-.92-.28,2.74,2.74,0,0,0-3.35,0,1.6,1.6,0,0,1-1.81,0,2.74,2.74,0,0,0-3.35,0,1.59,1.59,0,0,1-1.8,0,2.74,2.74,0,0,0-3.35,0,1.6,1.6,0,0,1-1.81,0,2.74,2.74,0,0,0-3.35,0l.77.87a1.6,1.6,0,0,1,1.81,0,2.74,2.74,0,0,0,3.35,0,1.6,1.6,0,0,1,1.8,0,2.74,2.74,0,0,0,3.35,0,1.6,1.6,0,0,1,1.81,0,2.74,2.74,0,0,0,3.35,0,1.6,1.6,0,0,1,1.81,0,2.55,2.55,0,0,0,1.69.57Z" transform="translate(-0.39 -0.11)"/><path class="cls-2" d="M68.88,33.77a2.44,2.44,0,0,0-1.36.55,1.6,1.6,0,0,1-1.81,0,2.74,2.74,0,0,0-3.35,0,1.59,1.59,0,0,1-1.8,0,2.74,2.74,0,0,0-3.35,0,1.6,1.6,0,0,1-1.81,0,2.74,2.74,0,0,0-3.35,0l.77.87a1.6,1.6,0,0,1,1.81,0,2.74,2.74,0,0,0,3.35,0,1.6,1.6,0,0,1,1.8,0,2.74,2.74,0,0,0,3.35,0,1.6,1.6,0,0,1,1.81,0,2.74,2.74,0,0,0,3.35,0,1.2,1.2,0,0,1,.59-.25Z" transform="translate(-0.39 -0.11)"/><path class="cls-2" d="M68.88,31.93a1,1,0,0,1-.26-.15,2.74,2.74,0,0,0-3.35,0,1.6,1.6,0,0,1-1.8,0,2.74,2.74,0,0,0-3.35,0,1.6,1.6,0,0,1-1.81,0,2.74,2.74,0,0,0-3.35,0l.77.87a1.6,1.6,0,0,1,1.8,0,2.74,2.74,0,0,0,3.35,0,1.59,1.59,0,0,1,1.8,0,2.74,2.74,0,0,0,3.35,0,1.6,1.6,0,0,1,1.81,0,2.31,2.31,0,0,0,1,.49Z" transform="translate(-0.39 -0.11)"/><path class="cls-2" d="M68.88,28.83a2.17,2.17,0,0,0-.71.4,1.6,1.6,0,0,1-1.8,0,2.74,2.74,0,0,0-3.35,0,1.6,1.6,0,0,1-1.81,0,2.74,2.74,0,0,0-3.35,0l.77.87a1.6,1.6,0,0,1,1.81,0,2.74,2.74,0,0,0,3.35,0,1.59,1.59,0,0,1,1.8,0,2.75,2.75,0,0,0,3.28,0Z" transform="translate(-0.39 -0.11)"/><path class="cls-2" d="M68.88,26.42a2.78,2.78,0,0,0-3,.27,1.6,1.6,0,0,1-1.81,0,2.74,2.74,0,0,0-3.35,0l.77.87a1.6,1.6,0,0,1,1.81,0,2.74,2.74,0,0,0,3.35,0,1.6,1.6,0,0,1,1.8,0,2,2,0,0,0,.38.26Z" transform="translate(-0.39 -0.11)"/><path class="cls-2" d="M68.88,24.11l-.05,0a1.6,1.6,0,0,1-1.81,0,2.74,2.74,0,0,0-3.35,0l.77.87a1.6,1.6,0,0,1,1.81,0,2.76,2.76,0,0,0,2.63.41Z" transform="translate(-0.39 -0.11)"/><path class="cls-2" d="M68.88,21.11a2.71,2.71,0,0,0-2.3.5l.77.87a1.63,1.63,0,0,1,1.53-.16Z" transform="translate(-0.39 -0.11)"/><path class="cls-2" d="M54.78,20.78,51.72,17.3l3.48-3.05,3.05,3.48Zm-1.41-3.37,1.52,1.73,1.73-1.52-1.52-1.73Z" transform="translate(-0.39 -0.11)"/><path class="cls-2" d="M58.84,16.89l-3.05-3.48,3.48-3.05,3.05,3.48Zm-1.41-3.37,1.52,1.73,1.73-1.52L59.16,12Z" transform="translate(-0.39 -0.11)"/><path class="cls-2" d="M63,13.21,60,9.73l3.48-3.05,3.05,3.48ZM61.6,9.84l1.52,1.73L64.85,10,63.33,8.32Z" transform="translate(-0.39 -0.11)"/><polygon class="cls-2" points="68.48 6.67 67 7.97 65.49 6.25 67.21 4.73 68.48 6.17 68.48 4.41 67.32 3.09 63.84 6.14 66.9 9.62 68.48 8.22 68.48 6.67"/><path class="cls-2" d="M51.06,16.62,48,13.14l3.48-3.05,3.05,3.48Zm-1.41-3.37L51.17,15l1.73-1.52-1.52-1.73Z" transform="translate(-0.39 -0.11)"/><path class="cls-2" d="M55.12,12.73,52.07,9.25,55.55,6.2,58.6,9.68ZM53.71,9.36l1.52,1.73L57,9.57,55.44,7.84Z" transform="translate(-0.39 -0.11)"/><path class="cls-2" d="M59.4,9.25,56.35,5.77l3.48-3.05,3.05,3.48ZM58,5.88,59.51,7.6l1.73-1.52L59.72,4.36Z" transform="translate(-0.39 -0.11)"/><path class="cls-2" d="M62.27.55,60.52,2.09l3.05,3.48,3.48-3.05-1.72-2Zm1.41,3.37L62.16,2.19,63.89.68,65.41,2.4Z" transform="translate(-0.39 -0.11)"/><polygon class="cls-2" points="66.18 0.44 67.35 1.77 68.48 0.78 68.48 0.44 66.18 0.44"/><path class="cls-2" d="M47.34,12.46,44.29,9l3.48-3.05L50.82,9.4ZM45.93,9.09l1.52,1.73L49.18,9.3,47.66,7.57Z" transform="translate(-0.39 -0.11)"/><path class="cls-2" d="M51.51,8.77,48.46,5.29l3.48-3.05L55,5.72ZM50.1,5.4l1.52,1.73,1.73-1.52L51.83,3.89Z" transform="translate(-0.39 -0.11)"/><polygon class="cls-2" points="55.91 0.44 57.12 1.82 55.4 3.34 53.88 1.61 55.21 0.44 53.44 0.44 52.24 1.5 55.29 4.98 58.77 1.93 57.47 0.44 55.91 0.44"/><polygon class="cls-2" points="58.71 0.44 59.46 1.3 60.43 0.44 58.71 0.44"/><path class="cls-2" d="M43.62,8.3,40.57,4.82,44,1.76,47.1,5.24ZM42.21,4.93l1.52,1.73,1.73-1.52L43.94,3.41Z" transform="translate(-0.39 -0.11)"/><polygon class="cls-2" points="48.44 0.44 49.23 1.34 47.51 2.86 45.99 1.13 46.78 0.44 45.01 0.44 44.35 1.03 47.4 4.5 50.88 1.45 49.99 0.44 48.44 0.44"/><rect class="cls-1" x="68.47" y="0.59" width="258.15" height="42.3"/><path class="cls-3" d="M.39.11V43.58H327.61V.11Zm1.17,42.3V1.28H68.28V42.41Zm324.87,0h-257V1.28h257Z" transform="translate(-0.39 -0.11)"/><path class="cls-3" d="M79.41,14.3h1.66L85.69,27l4.6-12.69H92l-5.48,15H84.87Z" transform="translate(-0.39 -0.11)"/><path class="cls-3" d="M98.45,14.3H100v15h-1.6Z" transform="translate(-0.39 -0.11)"/><path class="cls-3" d="M106.89,14.3h1.79l8.83,12.44V14.3h1.6v15h-1.7l-8.91-12.55V29.29h-1.6Z" transform="translate(-0.39 -0.11)"/><path class="cls-3" d="M125.31,21.79a7.7,7.7,0,1,1,7.7,7.7A7.7,7.7,0,0,1,125.31,21.79Zm13.76,0a6.06,6.06,0,1,0-12.12,0,6.06,6.06,0,1,0,12.12,0Z" transform="translate(-0.39 -0.11)"/><path class="cls-3" d="M145.8,26.74l1.35-1A4.42,4.42,0,0,0,151.1,28a2.91,2.91,0,0,0,3.18-2.83c0-1.85-1.79-2.42-3.66-3.06-2.05-.7-4.19-1.56-4.19-4.17,0-2.18,2-3.88,4.6-3.88a5.47,5.47,0,0,1,4.64,2.26l-1.27.94A3.74,3.74,0,0,0,151,15.51a2.69,2.69,0,0,0-3,2.46c0,1.72,1.72,2.28,3.57,2.92,2.07.72,4.27,1.58,4.27,4.31a4.52,4.52,0,0,1-4.81,4.29A6.07,6.07,0,0,1,145.8,26.74Z" transform="translate(-0.39 -0.11)"/><path class="cls-3" d="M166.28,18.39h1.9a3.35,3.35,0,0,1,3.54,3.4,3.38,3.38,0,0,1-3.51,3.4h-1.93Zm.73.67v5.45h1.15A2.69,2.69,0,0,0,171,21.79a2.66,2.66,0,0,0-2.85-2.73Z" transform="translate(-0.39 -0.11)"/><path class="cls-3" d="M174.54,18.39h4.13v.69h-3.4v2.36h3.4v.69h-3.4V24.5h3.4v.7h-4.13Z" transform="translate(-0.39 -0.11)"/><path class="cls-3" d="M188,21.79A7.7,7.7,0,0,1,202.36,18l-1.38.8a6,6,0,0,0-5.3-3.14,6.07,6.07,0,0,0-6.06,6.18A6.07,6.07,0,0,0,195.69,28a5.86,5.86,0,0,0,5.46-3.37l1.42.74a7.61,7.61,0,0,1-6.88,4.15A7.7,7.7,0,0,1,188,21.79Z" transform="translate(-0.39 -0.11)"/><path class="cls-3" d="M207.84,21.79a7.7,7.7,0,1,1,7.7,7.7A7.7,7.7,0,0,1,207.84,21.79Zm13.76,0a6.06,6.06,0,1,0-12.12,0,6.06,6.06,0,1,0,12.12,0Z" transform="translate(-0.39 -0.11)"/><path class="cls-3" d="M233.41,14.3h1.72l5.69,15h-1.66l-1.46-3.8h-6.84l-1.44,3.8h-1.68Zm-2,9.67h5.69l-2.85-7.52Z" transform="translate(-0.39 -0.11)"/><path class="cls-3" d="M256.2,22.51h-7.91v6.78h-1.6v-15h1.6V21h7.91V14.3h1.6v15h-1.6Z" transform="translate(-0.39 -0.11)"/><path class="cls-3" d="M264.37,24.4V14.3H266V24.48a3.5,3.5,0,0,0,7,0V14.3h1.6V24.4a5.1,5.1,0,0,1-10.21,0Z" transform="translate(-0.39 -0.11)"/><path class="cls-3" d="M281.33,14.3h1.6v15h-1.6Z" transform="translate(-0.39 -0.11)"/><path class="cls-3" d="M289.77,14.3h1.6V27.75h6.69v1.54h-8.3Z" transform="translate(-0.39 -0.11)"/><path class="cls-3" d="M309.51,14.3h1.72l5.69,15h-1.66l-1.46-3.8H307l-1.44,3.8h-1.68Zm-2,9.67h5.69l-2.85-7.52Z" transform="translate(-0.39 -0.11)"/></svg>